# Blender 5.0.0
# www.blender.org
mtllib Tree.mtl
o Cone.001
v -0.096245 3.756395 -1.738398
v 0.237400 3.756395 -1.705537
v 0.558223 3.756395 -1.608216
v 0.853896 3.756395 -1.450176
v 1.113055 3.756395 -1.237490
v 1.325741 3.756395 -0.978331
v 1.483781 3.756395 -0.682659
v 1.581101 3.756395 -0.361836
v 1.613963 3.756395 -0.028191
v 1.581101 3.756395 0.305454
v 1.483781 3.756395 0.626277
v 1.325741 3.756395 0.921950
v 1.113055 3.756395 1.181108
v 0.853896 3.756395 1.393795
v 0.558223 3.756395 1.551835
v 0.237400 3.756395 1.649155
v -0.096245 3.756395 1.682017
v -0.429890 3.756395 1.649155
v -0.750713 3.756395 1.551835
v -1.046385 3.756395 1.393795
v -1.305544 3.756395 1.181108
v -1.518230 3.756395 0.921950
v -1.676270 3.756395 0.626277
v -1.773591 3.756395 0.305454
v -1.806452 3.756395 -0.028191
v -1.773591 3.756395 -0.361836
v -1.676270 3.756395 -0.682659
v -1.518230 3.756395 -0.978331
v -1.305544 3.756395 -1.237490
v -1.046385 3.756395 -1.450176
v -0.750713 3.756395 -1.608216
v -0.429890 3.756395 -1.705537
v -0.096245 7.176810 -0.028191
v -0.096245 -0.271235 -0.283112
v -0.096245 7.035657 -0.283112
v 0.001310 -0.271235 -0.263708
v 0.001310 7.035657 -0.263708
v 0.084012 -0.271235 -0.208448
v 0.084012 7.035657 -0.208448
v 0.139272 -0.271235 -0.125745
v 0.139272 7.035657 -0.125745
v 0.158677 -0.271235 -0.028191
v 0.158677 7.035657 -0.028191
v 0.139272 -0.271235 0.069364
v 0.139272 7.035657 0.069364
v 0.084012 -0.271235 0.152066
v 0.084012 7.035657 0.152066
v 0.001310 -0.271235 0.207326
v 0.001310 7.035657 0.207326
v -0.096245 -0.271235 0.226731
v -0.096245 7.035657 0.226731
v -0.193799 -0.271235 0.207326
v -0.193799 7.035657 0.207326
v -0.276501 -0.271235 0.152066
v -0.276501 7.035657 0.152066
v -0.331762 -0.271235 0.069364
v -0.331762 7.035657 0.069364
v -0.351166 -0.271235 -0.028191
v -0.351166 7.035657 -0.028191
v -0.331762 -0.271235 -0.125745
v -0.331762 7.035657 -0.125745
v -0.276501 -0.271235 -0.208448
v -0.276501 7.035657 -0.208448
v -0.193799 -0.271235 -0.263708
v -0.193799 7.035657 -0.263708
v -0.096245 4.708790 -1.738398
v 0.237400 4.708790 -1.705537
v 0.558223 4.708790 -1.608216
v 0.853896 4.708790 -1.450176
v 1.113055 4.708790 -1.237490
v 1.325741 4.708790 -0.978331
v 1.483781 4.708790 -0.682659
v 1.581101 4.708790 -0.361836
v 1.613963 4.708790 -0.028191
v 1.581101 4.708790 0.305454
v 1.483781 4.708790 0.626277
v 1.325741 4.708790 0.921950
v 1.113055 4.708790 1.181108
v 0.853896 4.708790 1.393795
v 0.558223 4.708790 1.551835
v 0.237400 4.708790 1.649155
v -0.096245 4.708790 1.682017
v -0.429890 4.708790 1.649155
v -0.750713 4.708790 1.551835
v -1.046385 4.708790 1.393795
v -1.305544 4.708790 1.181108
v -1.518230 4.708790 0.921950
v -1.676270 4.708790 0.626277
v -1.773591 4.708790 0.305454
v -1.806452 4.708790 -0.028191
v -1.773591 4.708790 -0.361836
v -1.676270 4.708790 -0.682659
v -1.518230 4.708790 -0.978331
v -1.305544 4.708790 -1.237490
v -1.046385 4.708790 -1.450176
v -0.750713 4.708790 -1.608216
v -0.429890 4.708790 -1.705537
v -0.096245 8.129204 -0.028191
vn 0.0878 0.4455 -0.8910
vn 0.2599 0.4455 -0.8567
vn 0.4220 0.4455 -0.7896
vn 0.5680 0.4455 -0.6921
vn 0.6921 0.4455 -0.5680
vn 0.7896 0.4455 -0.4220
vn 0.8567 0.4455 -0.2599
vn 0.8910 0.4455 -0.0878
vn 0.8910 0.4455 0.0878
vn 0.8567 0.4455 0.2599
vn 0.7896 0.4455 0.4220
vn 0.6921 0.4455 0.5680
vn 0.5680 0.4455 0.6921
vn 0.4220 0.4455 0.7896
vn 0.2599 0.4455 0.8567
vn 0.0878 0.4455 0.8910
vn -0.0878 0.4455 0.8910
vn -0.2599 0.4455 0.8567
vn -0.4220 0.4455 0.7896
vn -0.5680 0.4455 0.6921
vn -0.6921 0.4455 0.5680
vn -0.7896 0.4455 0.4220
vn -0.8567 0.4455 0.2599
vn -0.8910 0.4455 0.0878
vn -0.8910 0.4455 -0.0878
vn -0.8567 0.4455 -0.2599
vn -0.7896 0.4455 -0.4220
vn -0.6921 0.4455 -0.5680
vn -0.5680 0.4455 -0.6921
vn -0.4220 0.4455 -0.7896
vn -0.2599 0.4455 -0.8567
vn -0.0878 0.4455 -0.8910
vn 0.1951 -0.0000 -0.9808
vn 0.5556 -0.0000 -0.8315
vn 0.8315 -0.0000 -0.5556
vn 0.9808 -0.0000 -0.1951
vn 0.9808 -0.0000 0.1951
vn 0.8315 -0.0000 0.5556
vn 0.5556 -0.0000 0.8315
vn 0.1951 -0.0000 0.9808
vn -0.1951 -0.0000 0.9808
vn -0.5556 -0.0000 0.8315
vn -0.8315 -0.0000 0.5556
vn -0.9808 -0.0000 0.1951
vn -0.9808 -0.0000 -0.1951
vn -0.8315 -0.0000 -0.5556
vn -0.0000 1.0000 -0.0000
vn -0.5556 -0.0000 -0.8315
vn -0.1951 -0.0000 -0.9808
vn -0.0000 -1.0000 -0.0000
vt 0.574980 0.992201
vt 0.574980 0.769967
vt 0.618335 0.987930
vt 0.660025 0.975284
vt 0.698446 0.954748
vt 0.732122 0.927110
vt 0.759760 0.893434
vt 0.780296 0.855012
vt 0.792943 0.813323
vt 0.797213 0.769967
vt 0.792943 0.726612
vt 0.780296 0.684922
vt 0.759760 0.646501
vt 0.732122 0.612825
vt 0.698446 0.585187
vt 0.660025 0.564651
vt 0.618335 0.552004
vt 0.574980 0.547734
vt 0.531624 0.552004
vt 0.489935 0.564651
vt 0.451513 0.585187
vt 0.417837 0.612825
vt 0.390199 0.646501
vt 0.369663 0.684922
vt 0.357017 0.726612
vt 0.352746 0.769967
vt 0.357017 0.813323
vt 0.369663 0.855012
vt 0.390199 0.893434
vt 0.417837 0.927110
vt 0.451513 0.954748
vt 0.489935 0.975284
vt 0.531624 0.987930
vt 0.295633 0.986231
vt 0.278994 0.733755
vt 0.295633 0.733755
vt 0.278994 0.986231
vt 0.262355 0.733755
vt 0.262355 0.986231
vt 0.245716 0.733755
vt 0.245716 0.986231
vt 0.229077 0.733755
vt 0.229077 0.986231
vt 0.212438 0.733755
vt 0.212438 0.986231
vt 0.195799 0.733755
vt 0.195799 0.986231
vt 0.179160 0.733755
vt 0.179160 0.986231
vt 0.162521 0.733755
vt 0.162521 0.986231
vt 0.145882 0.733755
vt 0.145882 0.986231
vt 0.129243 0.733755
vt 0.129243 0.986231
vt 0.112604 0.733755
vt 0.112604 0.986231
vt 0.095965 0.733755
vt 0.095965 0.986231
vt 0.079326 0.733755
vt 0.079326 0.986231
vt 0.062688 0.733755
vt 0.062688 0.986231
vt 0.046049 0.733755
vt 0.046049 0.986231
vt 0.029410 0.733755
vt 0.649371 0.611597
vt 0.412559 0.709688
vt 0.510650 0.946500
vt 0.029410 0.986231
vt 0.580011 0.960297
vt 0.649371 0.946500
vt 0.708173 0.907211
vt 0.747462 0.848410
vt 0.761259 0.779049
vt 0.747462 0.709688
vt 0.708173 0.650887
vt 0.580011 0.597800
vt 0.510650 0.611597
vt 0.451849 0.650887
vt 0.398762 0.779049
vt 0.412559 0.848410
vt 0.451849 0.907211
s 0
usemtl Material.003
f 1/1/1 33/2/1 2/3/1
f 2/3/2 33/2/2 3/4/2
f 3/4/3 33/2/3 4/5/3
f 4/5/4 33/2/4 5/6/4
f 5/6/5 33/2/5 6/7/5
f 6/7/6 33/2/6 7/8/6
f 7/8/7 33/2/7 8/9/7
f 8/9/8 33/2/8 9/10/8
f 9/10/9 33/2/9 10/11/9
f 10/11/10 33/2/10 11/12/10
f 11/12/11 33/2/11 12/13/11
f 12/13/12 33/2/12 13/14/12
f 13/14/13 33/2/13 14/15/13
f 14/15/14 33/2/14 15/16/14
f 15/16/15 33/2/15 16/17/15
f 16/17/16 33/2/16 17/18/16
f 17/18/17 33/2/17 18/19/17
f 18/19/18 33/2/18 19/20/18
f 19/20/19 33/2/19 20/21/19
f 20/21/20 33/2/20 21/22/20
f 21/22/21 33/2/21 22/23/21
f 22/23/22 33/2/22 23/24/22
f 23/24/23 33/2/23 24/25/23
f 24/25/24 33/2/24 25/26/24
f 25/26/25 33/2/25 26/27/25
f 26/27/26 33/2/26 27/28/26
f 27/28/27 33/2/27 28/29/27
f 28/29/28 33/2/28 29/30/28
f 29/30/29 33/2/29 30/31/29
f 30/31/30 33/2/30 31/32/30
f 31/32/31 33/2/31 32/33/31
f 32/33/32 33/2/32 1/1/32
f 35/34/33 36/35/33 34/36/33
f 37/37/34 38/38/34 36/35/34
f 39/39/35 40/40/35 38/38/35
f 41/41/36 42/42/36 40/40/36
f 43/43/37 44/44/37 42/42/37
f 45/45/38 46/46/38 44/44/38
f 47/47/39 48/48/39 46/46/39
f 49/49/40 50/50/40 48/48/40
f 51/51/41 52/52/41 50/50/41
f 53/53/42 54/54/42 52/52/42
f 55/55/43 56/56/43 54/54/43
f 57/57/44 58/58/44 56/56/44
f 59/59/45 60/60/45 58/58/45
f 61/61/46 62/62/46 60/60/46
f 55/22/47 47/14/47 39/6/47
f 63/63/48 64/64/48 62/62/48
f 65/65/49 34/66/49 64/64/49
f 48/67/50 56/68/50 64/69/50
f 66/1/1 98/2/1 67/3/1
f 67/3/2 98/2/2 68/4/2
f 68/4/3 98/2/3 69/5/3
f 69/5/4 98/2/4 70/6/4
f 70/6/5 98/2/5 71/7/5
f 71/7/6 98/2/6 72/8/6
f 72/8/7 98/2/7 73/9/7
f 73/9/8 98/2/8 74/10/8
f 74/10/9 98/2/9 75/11/9
f 75/11/10 98/2/10 76/12/10
f 76/12/11 98/2/11 77/13/11
f 77/13/12 98/2/12 78/14/12
f 78/14/13 98/2/13 79/15/13
f 79/15/14 98/2/14 80/16/14
f 80/16/15 98/2/15 81/17/15
f 81/17/16 98/2/16 82/18/16
f 82/18/17 98/2/17 83/19/17
f 83/19/18 98/2/18 84/20/18
f 84/20/19 98/2/19 85/21/19
f 85/21/20 98/2/20 86/22/20
f 86/22/21 98/2/21 87/23/21
f 87/23/22 98/2/22 88/24/22
f 88/24/23 98/2/23 89/25/23
f 89/25/24 98/2/24 90/26/24
f 90/26/25 98/2/25 91/27/25
f 91/27/26 98/2/26 92/28/26
f 92/28/27 98/2/27 93/29/27
f 93/29/28 98/2/28 94/30/28
f 94/30/29 98/2/29 95/31/29
f 95/31/30 98/2/30 96/32/30
f 96/32/31 98/2/31 97/33/31
f 97/33/32 98/2/32 66/1/32
f 35/34/33 37/37/33 36/35/33
f 37/37/34 39/39/34 38/38/34
f 39/39/35 41/41/35 40/40/35
f 41/41/36 43/43/36 42/42/36
f 43/43/37 45/45/37 44/44/37
f 45/45/38 47/47/38 46/46/38
f 47/47/39 49/49/39 48/48/39
f 49/49/40 51/51/40 50/50/40
f 51/51/41 53/53/41 52/52/41
f 53/53/42 55/55/42 54/54/42
f 55/55/43 57/57/43 56/56/43
f 57/57/44 59/59/44 58/58/44
f 59/59/45 61/61/45 60/60/45
f 61/61/46 63/63/46 62/62/46
f 39/6/47 37/4/47 35/1/47
f 35/1/47 65/32/47 63/30/47
f 63/30/47 61/28/47 59/26/47
f 59/26/47 57/24/47 55/22/47
f 55/22/47 53/20/47 51/18/47
f 51/18/47 49/16/47 47/14/47
f 47/14/47 45/12/47 43/10/47
f 43/10/47 41/8/47 39/6/47
f 39/6/47 35/1/47 63/30/47
f 63/30/47 59/26/47 55/22/47
f 55/22/47 51/18/47 47/14/47
f 47/14/47 43/10/47 39/6/47
f 39/6/47 63/30/47 55/22/47
f 63/63/48 65/65/48 64/64/48
f 65/65/49 35/70/49 34/66/49
f 64/69/50 34/71/50 36/72/50
f 36/72/50 38/73/50 40/74/50
f 40/74/50 42/75/50 44/76/50
f 44/76/50 46/77/50 48/67/50
f 48/67/50 50/78/50 52/79/50
f 52/79/50 54/80/50 56/68/50
f 56/68/50 58/81/50 60/82/50
f 60/82/50 62/83/50 64/69/50
f 64/69/50 36/72/50 40/74/50
f 40/74/50 44/76/50 48/67/50
f 48/67/50 52/79/50 56/68/50
f 56/68/50 60/82/50 64/69/50
f 64/69/50 40/74/50 48/67/50
